<svg id="Layer_1" viewBox="0 0 24 24" xmlns="http://www.w3.org/2000/svg" data-name="Layer 1"><path d="m6 9v2h3v-.812c.608.353 1.282.6 2 .721v2.09h-7v-5.999h2.35c.265.746.672 1.422 1.19 2zm2-4c0-1.15.667-2.04 1.33-2.725 0 0 .454 1.725.858 1.725.842 0 .598-2.598 1.812-4 1.263 1.263 4 2.684 4 5 0 2.209-1.791 4-4 4s-4-1.791-4-4zm3.057 2.609c.521.521 1.365.521 1.886 0s.521-1.365 0-1.886l-.943-.943-.943.943c-.521.521-.521 1.365 0 1.886zm5.555-6.166c.479.578 1.074 1.485 1.295 2.649l4.093 1.592v16.316h-2v-7h-7v7.026h-2v-7.026h-7v7.006l-2 .013v-16.335l4.093-1.592c.221-1.165.816-2.072 1.295-2.649l-7.388 2.873v19.684l6-.006v-6.994h3v7h6v-7h3v7h6v-19.684zm-3.612 9.467v2.09h7v-6h-2.35c-.265.746-.672 1.422-1.19 2h1.54v2h-3v-.812c-.608.353-1.282.6-2 .721z"/></svg>