<?xml version="1.0" standalone="no"?>
<!DOCTYPE svg PUBLIC "-//W3C//DTD SVG 20010904//EN"
 "http://www.w3.org/TR/2001/REC-SVG-20010904/DTD/svg10.dtd">
<svg version="1.0" xmlns="http://www.w3.org/2000/svg"
 width="512.000000pt" height="512.000000pt" viewBox="0 0 512.000000 512.000000"
 preserveAspectRatio="xMidYMid meet">
<metadata>
Created by potrace 1.16, written by Peter Selinger 2001-2019
</metadata>
<g transform="translate(0.000000,512.000000) scale(0.100000,-0.100000)"
fill="#000000" stroke="none">
<path d="M3190 5113 c-8 -3 -50 -20 -92 -39 -166 -71 -103 -67 -1043 -73
l-850 -6 -49 -25 c-120 -61 -139 -141 -83 -346 59 -211 76 -334 102 -744 24
-385 46 -520 130 -785 32 -102 38 -135 39 -216 l1 -95 -62 -92 c-84 -124 -123
-209 -203 -448 -69 -206 -119 -323 -182 -431 -83 -140 -119 -275 -119 -437 0
-191 55 -355 208 -622 107 -185 121 -215 134 -274 8 -36 8 -59 -1 -84 -13 -41
-99 -123 -170 -163 -42 -23 -63 -43 -46 -43 24 0 324 -54 365 -66 30 -9 89
-33 131 -54 122 -61 176 -73 304 -67 89 4 134 12 231 41 66 20 185 54 264 76
200 57 331 110 671 275 579 281 731 331 1065 344 223 9 236 16 345 181 49 76
60 100 60 134 0 52 -35 89 -125 134 -87 43 -204 148 -257 229 -77 117 -82 136
-79 313 2 85 4 326 5 535 l1 380 36 70 c57 110 56 137 -13 241 -117 178 -136
265 -148 669 -8 256 -13 317 -33 415 -14 63 -28 138 -31 165 -32 229 -69 300
-210 404 -102 76 -124 126 -100 231 8 36 17 94 20 130 4 54 2 70 -15 98 -12
18 -33 37 -47 42 -27 10 -128 12 -154 3z"/>
</g>
</svg>
